<svg width="30" height="30" viewBox="0 0 30 30" fill="none" xmlns="http://www.w3.org/2000/svg">
<path d="M21.25 17.5C21.5815 17.5 21.8995 17.3683 22.1339 17.1339C22.3683 16.8995 22.5 16.5815 22.5 16.25C22.5 15.9185 22.3683 15.6005 22.1339 15.3661C21.8995 15.1317 21.5815 15 21.25 15C20.9185 15 20.6005 15.1317 20.3661 15.3661C20.1317 15.6005 20 15.9185 20 16.25C20 16.5815 20.1317 16.8995 20.3661 17.1339C20.6005 17.3683 20.9185 17.5 21.25 17.5ZM21.25 22.5C21.5815 22.5 21.8995 22.3683 22.1339 22.1339C22.3683 21.8995 22.5 21.5815 22.5 21.25C22.5 20.9185 22.3683 20.6005 22.1339 20.3661C21.8995 20.1317 21.5815 20 21.25 20C20.9185 20 20.6005 20.1317 20.3661 20.3661C20.1317 20.6005 20 20.9185 20 21.25C20 21.5815 20.1317 21.8995 20.3661 22.1339C20.6005 22.3683 20.9185 22.5 21.25 22.5ZM16.25 16.25C16.25 16.5815 16.1183 16.8995 15.8839 17.1339C15.6495 17.3683 15.3315 17.5 15 17.5C14.6685 17.5 14.3505 17.3683 14.1161 17.1339C13.8817 16.8995 13.75 16.5815 13.75 16.25C13.75 15.9185 13.8817 15.6005 14.1161 15.3661C14.3505 15.1317 14.6685 15 15 15C15.3315 15 15.6495 15.1317 15.8839 15.3661C16.1183 15.6005 16.25 15.9185 16.25 16.25ZM16.25 21.25C16.25 21.5815 16.1183 21.8995 15.8839 22.1339C15.6495 22.3683 15.3315 22.5 15 22.5C14.6685 22.5 14.3505 22.3683 14.1161 22.1339C13.8817 21.8995 13.75 21.5815 13.75 21.25C13.75 20.9185 13.8817 20.6005 14.1161 20.3661C14.3505 20.1317 14.6685 20 15 20C15.3315 20 15.6495 20.1317 15.8839 20.3661C16.1183 20.6005 16.25 20.9185 16.25 21.25ZM8.75 17.5C9.08152 17.5 9.39946 17.3683 9.63388 17.1339C9.8683 16.8995 10 16.5815 10 16.25C10 15.9185 9.8683 15.6005 9.63388 15.3661C9.39946 15.1317 9.08152 15 8.75 15C8.41848 15 8.10054 15.1317 7.86612 15.3661C7.6317 15.6005 7.5 15.9185 7.5 16.25C7.5 16.5815 7.6317 16.8995 7.86612 17.1339C8.10054 17.3683 8.41848 17.5 8.75 17.5ZM8.75 22.5C9.08152 22.5 9.39946 22.3683 9.63388 22.1339C9.8683 21.8995 10 21.5815 10 21.25C10 20.9185 9.8683 20.6005 9.63388 20.3661C9.39946 20.1317 9.08152 20 8.75 20C8.41848 20 8.10054 20.1317 7.86612 20.3661C7.6317 20.6005 7.5 20.9185 7.5 21.25C7.5 21.5815 7.6317 21.8995 7.86612 22.1339C8.10054 22.3683 8.41848 22.5 8.75 22.5Z" fill="#B8F8FF"/>
<path fill-rule="evenodd" clip-rule="evenodd" d="M8.75021 2.1875C8.99886 2.1875 9.23731 2.28627 9.41313 2.46209C9.58894 2.6379 9.68771 2.87636 9.68771 3.125V4.07875C10.5152 4.0625 11.4265 4.0625 12.429 4.0625H17.5702C18.574 4.0625 19.4852 4.0625 20.3127 4.07875V3.125C20.3127 2.87636 20.4115 2.6379 20.5873 2.46209C20.7631 2.28627 21.0016 2.1875 21.2502 2.1875C21.4989 2.1875 21.7373 2.28627 21.9131 2.46209C22.0889 2.6379 22.1877 2.87636 22.1877 3.125V4.15875C22.5127 4.18375 22.8202 4.215 23.1115 4.25375C24.5765 4.45125 25.7627 4.86625 26.699 5.80125C27.634 6.7375 28.049 7.92375 28.2465 9.38875C28.4377 10.8138 28.4377 12.6325 28.4377 14.93V17.57C28.4377 19.8675 28.4377 21.6875 28.2465 23.1113C28.049 24.5763 27.634 25.7625 26.699 26.6987C25.7627 27.6337 24.5765 28.0488 23.1115 28.2463C21.6865 28.4375 19.8677 28.4375 17.5702 28.4375H12.4315C10.134 28.4375 8.31397 28.4375 6.89022 28.2463C5.42521 28.0488 4.23896 27.6337 3.30271 26.6987C2.36771 25.7625 1.95271 24.5763 1.75521 23.1113C1.56396 21.6863 1.56396 19.8675 1.56396 17.57V14.93C1.56396 12.6325 1.56396 10.8125 1.75521 9.38875C1.95271 7.92375 2.36771 6.7375 3.30271 5.80125C4.23896 4.86625 5.42521 4.45125 6.89022 4.25375C7.18147 4.215 7.49021 4.18375 7.81396 4.15875V3.125C7.81396 2.87658 7.91257 2.63831 8.08811 2.46253C8.26366 2.28675 8.50179 2.18783 8.75021 2.1875ZM7.13771 6.1125C5.88146 6.28125 5.15646 6.59875 4.62771 7.1275C4.09896 7.65625 3.78146 8.38125 3.61271 9.63875C3.58396 9.85125 3.56021 10.0763 3.54021 10.3125H26.4602C26.4402 10.075 26.4165 9.85125 26.3877 9.6375C26.219 8.38125 25.9015 7.65625 25.3727 7.1275C24.844 6.59875 24.119 6.28125 22.8615 6.1125C21.5777 5.94 19.884 5.9375 17.5002 5.9375H12.5002C10.1165 5.9375 8.42397 5.94 7.13771 6.1125ZM3.43771 15C3.43771 13.9325 3.43771 13.0037 3.45396 12.1875H26.5465C26.5627 13.0037 26.5627 13.9325 26.5627 15V17.5C26.5627 19.8837 26.5602 21.5775 26.3877 22.8625C26.219 24.1188 25.9015 24.8438 25.3727 25.3725C24.844 25.9013 24.119 26.2188 22.8615 26.3875C21.5777 26.56 19.884 26.5625 17.5002 26.5625H12.5002C10.1165 26.5625 8.42397 26.56 7.13771 26.3875C5.88146 26.2188 5.15646 25.9013 4.62771 25.3725C4.09896 24.8438 3.78146 24.1187 3.61271 22.8612C3.44021 21.5775 3.43771 19.8837 3.43771 17.5V15Z" fill="#B8F8FF"/>
</svg>
