<svg width="30" height="30" viewBox="0 0 30 30" fill="none" xmlns="http://www.w3.org/2000/svg">
<path d="M16.5 27.5V27.125C16.5 25.2625 15 23.75 13.125 23.75C11.25 23.75 9.75 25.2625 9.75 27.125V27.5H5C4.33696 27.5 3.70107 27.2366 3.23223 26.7678C2.76339 26.2989 2.5 25.663 2.5 25V20.25H2.875C4.7375 20.25 6.25 18.75 6.25 16.875C6.25 15 4.7375 13.5 2.875 13.5H2.5V8.75C2.5 7.375 3.625 6.25 5 6.25H8.8C9.1 4.125 10.925 2.5 13.125 2.5C15.325 2.5 17.15 4.125 17.45 6.25H21.25C21.913 6.25 22.5489 6.51339 23.0178 6.98223C23.4866 7.45107 23.75 8.08696 23.75 8.75V12.55C25.5625 12.8125 27.0125 14.175 27.3875 15.95C26.2764 15.3271 25.0238 14.9999 23.75 15H21.25V8.75H15V6.875C15 5.8375 14.1625 5 13.125 5C12.0875 5 11.25 5.8375 11.25 6.875V8.75H5V11.4C7.2 12.25 8.75 14.375 8.75 16.875C8.75 19.375 7.1875 21.5 5 22.35V25H7.65C8.07833 23.896 8.83031 22.9471 9.80733 22.2779C10.7843 21.6088 11.9408 21.2504 13.125 21.25C14.2875 21.25 15.3625 21.6 16.25 22.175V22.5C16.25 24.425 16.975 26.175 18.175 27.5H16.5ZM23.75 27.875L24.5 27.25C27 24.875 28.75 23.375 28.75 21.5C28.75 19.875 27.5 18.75 26 18.75C25.125 18.75 24.25 19.125 23.75 19.75C23.25 19.125 22.375 18.75 21.5 18.75C20 18.75 18.75 20 18.75 21.5C18.75 23.375 20.5 24.875 23 27.25L23.75 27.875Z" fill="#B8F8FF"/>
</svg>
