<svg width="30" height="30" viewBox="0 0 30 30" fill="none" xmlns="http://www.w3.org/2000/svg">
<path fill-rule="evenodd" clip-rule="evenodd" d="M17.9825 15.4169C17.8101 14.9294 17.4908 14.5073 17.0686 14.2088C16.6464 13.9103 16.1421 13.75 15.625 13.75V13.125H14.375V13.75C13.712 13.75 13.0761 14.0134 12.6072 14.4822C12.1384 14.9511 11.875 15.587 11.875 16.25C11.875 16.913 12.1384 17.5489 12.6072 18.0178C13.0761 18.4866 13.712 18.75 14.375 18.75V21.25C13.8312 21.25 13.3681 20.9031 13.1956 20.4169C13.17 20.3373 13.1287 20.2637 13.0742 20.2004C13.0197 20.1371 12.953 20.0853 12.8781 20.0482C12.8032 20.0111 12.7217 19.9894 12.6382 19.9844C12.5548 19.9794 12.4712 19.9911 12.3924 20.019C12.3137 20.0468 12.2412 20.0902 12.1795 20.1465C12.1177 20.2028 12.0679 20.2709 12.033 20.3468C11.998 20.4227 11.9786 20.5049 11.976 20.5884C11.9733 20.6719 11.9874 20.7552 12.0175 20.8331C12.1899 21.3206 12.5092 21.7427 12.9314 22.0412C13.3536 22.3397 13.8579 22.5 14.375 22.5V23.125H15.625V22.5C16.288 22.5 16.9239 22.2366 17.3928 21.7678C17.8616 21.2989 18.125 20.663 18.125 20C18.125 19.337 17.8616 18.7011 17.3928 18.2322C16.9239 17.7634 16.288 17.5 15.625 17.5V15C15.8835 14.9999 16.1357 15.08 16.3468 15.2292C16.5579 15.3784 16.7175 15.5894 16.8037 15.8331C16.8589 15.9894 16.974 16.1174 17.1235 16.1889C17.1976 16.2243 17.2779 16.2448 17.3599 16.2492C17.4418 16.2535 17.5239 16.2417 17.6013 16.2144C17.6786 16.187 17.7499 16.1447 17.811 16.0899C17.872 16.035 17.9216 15.9686 17.957 15.8946C17.9924 15.8205 18.0129 15.7402 18.0173 15.6583C18.0217 15.5763 18.0098 15.4943 17.9825 15.4169ZM14.375 15C14.0435 15 13.7255 15.1317 13.4911 15.3661C13.2567 15.6005 13.125 15.9185 13.125 16.25C13.125 16.5815 13.2567 16.8995 13.4911 17.1339C13.7255 17.3683 14.0435 17.5 14.375 17.5V15ZM15.625 21.25C15.9565 21.25 16.2745 21.1183 16.5089 20.8839C16.7433 20.6495 16.875 20.3315 16.875 20C16.875 19.6685 16.7433 19.3505 16.5089 19.1161C16.2745 18.8817 15.9565 18.75 15.625 18.75V21.25Z" fill="#B8F8FF"/>
<path fill-rule="evenodd" clip-rule="evenodd" d="M8.22061 5.38813C9.75436 4.6375 12.2706 3.75 15.0244 3.75C17.7206 3.75 20.1706 4.60062 21.6962 5.34125L21.7825 5.38312C22.2425 5.61062 22.6137 5.82563 22.875 6L20.5662 9.375C25.8887 14.8163 30 26.2481 15.0244 26.2481C0.0487375 26.2481 4.04936 15.0238 9.41811 9.375L7.12436 6C7.30124 5.88438 7.52561 5.75 7.79311 5.6075C7.92561 5.53625 8.06811 5.4625 8.22061 5.38813ZM19.0825 9.33062L20.9306 6.62875C19.2119 6.7525 17.1669 7.15625 15.1981 7.72625C13.7919 8.1325 12.2294 8.07063 10.7825 7.80375C10.4179 7.73616 10.0558 7.65569 9.69686 7.5625L10.8969 9.32938C13.4687 10.245 16.51 10.245 19.0825 9.33062ZM10.175 10.3937C13.1844 11.5562 16.8012 11.5563 19.8106 10.3925C21.0668 11.7167 22.1176 13.2215 22.9281 14.8569C23.7731 16.5806 24.2331 18.3038 24.1581 19.7888C24.0856 21.2219 23.5219 22.4462 22.2344 23.3562C20.8925 24.3044 18.6356 24.9981 15.0237 24.9981C11.4081 24.9981 9.14061 24.3162 7.78624 23.3787C6.48936 22.4806 5.91999 21.2725 5.83936 19.8588C5.75499 18.39 6.20499 16.6756 7.04686 14.94C7.84999 13.285 8.97061 11.6919 10.175 10.3937ZM9.45624 6.1975C9.95624 6.34625 10.4787 6.47562 11.0087 6.57375C12.3525 6.82125 13.7 6.8575 14.85 6.52438C16.1901 6.13397 17.5531 5.82692 18.9312 5.605C17.7812 5.25875 16.4362 5 15.0237 5C12.8706 5 10.8625 5.60063 9.45624 6.1975Z" fill="#B8F8FF"/>
</svg>
