<svg width="30" height="30" viewBox="0 0 30 30" fill="none" xmlns="http://www.w3.org/2000/svg">
<path d="M9.75 18C9.55109 18 9.36032 17.921 9.21967 17.7803C9.07902 17.6397 9 17.4489 9 17.25C9 17.0511 9.07902 16.8603 9.21967 16.7197C9.36032 16.579 9.55109 16.5 9.75 16.5H20.25C20.4489 16.5 20.6397 16.579 20.7803 16.7197C20.921 16.8603 21 17.0511 21 17.25C21 17.4489 20.921 17.6397 20.7803 17.7803C20.6397 17.921 20.4489 18 20.25 18H9.75ZM9.75 22.5C9.55109 22.5 9.36032 22.421 9.21967 22.2803C9.07902 22.1397 9 21.9489 9 21.75C9 21.5511 9.07902 21.3603 9.21967 21.2197C9.36032 21.079 9.55109 21 9.75 21H20.25C20.4489 21 20.6397 21.079 20.7803 21.2197C20.921 21.3603 21 21.5511 21 21.75C21 21.9489 20.921 22.1397 20.7803 22.2803C20.6397 22.421 20.4489 22.5 20.25 22.5H9.75Z" fill="#B8F8FF"/>
<path fill-rule="evenodd" clip-rule="evenodd" d="M16.7775 1.5H6.75C6.15326 1.5 5.58097 1.73705 5.15901 2.15901C4.73705 2.58097 4.5 3.15326 4.5 3.75V26.25C4.5 26.8467 4.73705 27.419 5.15901 27.841C5.58097 28.2629 6.15326 28.5 6.75 28.5H23.25C23.8467 28.5 24.419 28.2629 24.841 27.841C25.2629 27.419 25.5 26.8467 25.5 26.25V10.803C25.4999 10.2397 25.2884 9.69696 24.9075 9.282L18.4365 2.229C18.2256 1.99912 17.9692 1.8156 17.6836 1.6901C17.398 1.5646 17.0895 1.49987 16.7775 1.5ZM6 3.75C6 3.55109 6.07902 3.36032 6.21967 3.21967C6.36032 3.07902 6.55109 3 6.75 3H16.7775C16.8816 2.99989 16.9845 3.02143 17.0798 3.06327C17.1751 3.1051 17.2606 3.16631 17.331 3.243L23.802 10.296C23.9292 10.4342 23.9998 10.6152 24 10.803V26.25C24 26.4489 23.921 26.6397 23.7803 26.7803C23.6397 26.921 23.4489 27 23.25 27H6.75C6.55109 27 6.36032 26.921 6.21967 26.7803C6.07902 26.6397 6 26.4489 6 26.25V3.75Z" fill="#B8F8FF"/>
<path d="M16.5 10.5H24.75C24.9489 10.5 25.1397 10.579 25.2803 10.7197C25.421 10.8603 25.5 11.0511 25.5 11.25C25.5 11.4489 25.421 11.6397 25.2803 11.7803C25.1397 11.921 24.9489 12 24.75 12H15.75C15.5511 12 15.3603 11.921 15.2197 11.7803C15.079 11.6397 15 11.4489 15 11.25V2.25C15 2.05109 15.079 1.86032 15.2197 1.71967C15.3603 1.57902 15.5511 1.5 15.75 1.5C15.9489 1.5 16.1397 1.57902 16.2803 1.71967C16.421 1.86032 16.5 2.05109 16.5 2.25V10.5Z" fill="#B8F8FF"/>
</svg>
