<svg width="30" height="30" viewBox="0 0 30 30" fill="none" xmlns="http://www.w3.org/2000/svg">
<g clip-path="url(#clip0_11_79)">
<path d="M14.9168 14.4167C17.1668 14.4167 18.9168 12.5833 18.9168 10.3333C18.9168 8.08334 17.0835 6.33334 14.8335 6.33334C12.5835 6.33334 10.8335 8.16668 10.8335 10.3333C10.8335 12.5833 12.6668 14.4167 14.9168 14.4167ZM14.8335 8.00001C14.9168 8.00001 14.9168 8.00001 14.8335 8.00001C16.1668 8.00001 17.2502 9.08334 17.2502 10.4167C17.2502 11.75 16.1668 12.75 14.8335 12.75C13.5002 12.75 12.5002 11.6667 12.5002 10.4167C12.5002 9.08334 13.5835 8.00001 14.8335 8.00001Z" fill="#B8F8FF"/>
<path d="M27.25 13.9167C25.6667 12.5 23.5833 11.75 21.4167 11.8333H20.75C20.5833 12.5 20.3333 13.0833 20 13.5833C20.5 13.5 20.9167 13.5 21.4167 13.5C23 13.4167 24.5833 13.9167 25.8333 14.8333V20.8333H27.5V14.1667L27.25 13.9167Z" fill="#B8F8FF"/>
<path d="M19.5002 6.50001C19.9168 5.50001 21.0835 5.00001 22.1668 5.41668C23.1668 5.83334 23.6668 7.00001 23.2502 8.08334C22.9168 8.83334 22.1668 9.33334 21.4168 9.33334C21.2502 9.33334 21.0002 9.33334 20.8335 9.25001C20.9168 9.66668 20.9168 10.0833 20.9168 10.4167V10.9167C21.0835 10.9167 21.2502 11 21.4168 11C23.5002 11 25.1668 9.33334 25.1668 7.33334C25.1668 5.25001 23.5002 3.58334 21.5002 3.58334C20.1668 3.58334 19.0002 4.25001 18.3335 5.41668C18.7502 5.66668 19.1668 6.00001 19.5002 6.50001Z" fill="#B8F8FF"/>
<path d="M10 13.6667C9.66667 13.1667 9.41667 12.5833 9.25 11.9167H8.58333C6.41667 11.8333 4.33333 12.5833 2.75 13.9167L2.5 14.1667V20.8333H4.16667V14.8333C5.5 13.9167 7 13.4167 8.58333 13.5C9.08333 13.5 9.58333 13.5833 10 13.6667Z" fill="#B8F8FF"/>
<path d="M8.58347 10.9167C8.75013 10.9167 8.9168 10.9167 9.08347 10.8333V10.3333C9.08347 9.91667 9.08347 9.5 9.1668 9.16667C9.00013 9.25 8.75013 9.25 8.58347 9.25C7.50013 9.25 6.58347 8.33333 6.58347 7.25C6.58347 6.16667 7.50013 5.25 8.58347 5.25C9.4168 5.25 10.1668 5.75 10.5001 6.5C10.8335 6.08333 11.3335 5.66667 11.7501 5.33333C10.6668 3.58333 8.4168 3 6.6668 4.08333C4.9168 5.16667 4.33347 7.41667 5.4168 9.16667C6.08347 10.25 7.25013 10.9167 8.58347 10.9167Z" fill="#B8F8FF"/>
<path d="M21.7502 18.9167L21.5835 18.6667C19.9168 16.8333 17.5835 15.75 15.0835 15.8333C12.5835 15.75 10.1668 16.8333 8.50016 18.6667L8.3335 18.9167V25.25C8.3335 26 8.91683 26.6667 9.75016 26.6667H20.4168C21.1668 26.6667 21.8335 26 21.8335 25.25V18.9167H21.7502ZM20.0835 25H10.0002V19.5C11.3335 18.1667 13.1668 17.5 15.0835 17.5C16.9168 17.4167 18.7502 18.1667 20.0835 19.5V25Z" fill="#B8F8FF"/>
</g>
<defs>
<clipPath id="clip0_11_79">
<rect width="30" height="30" fill="white"/>
</clipPath>
</defs>
</svg>
